<svg xmlns="http://www.w3.org/2000/svg" width="58" height="82" viewBox="0 0 58 82">
  <g fill="#FFF" fill-rule="evenodd" transform="translate(.112 .568)">
    <path d="M9.67179399 75.0352325L9.67179399 74.993662C9.67179399 72.4737338 7.78302614 70.4662564 5.36034436 70.4662564 2.87556196 70.4662564 1.08827562 72.4948969 1.08827562 74.954359L1.08827562 74.993662C1.08827562 77.5151019 2.9778008 79.5225792 5.39972525 79.5225792 7.88526498 79.5225792 9.67179399 77.4946946 9.67179399 75.0352325M0 75.0352325L0 74.993662C0 72.0648312 2.2795474 69.5244956 5.39972525 69.5244956 8.50248462 69.5244956 10.7600696 72.0240165 10.7600696 74.954359L10.7600696 74.993662C10.7600696 77.9240045 8.4805222 80.4666075 5.36034436 80.4666075 2.25909964 80.4666075 0 77.965575 0 75.0352325M13.1138348 75.0352325L13.1138348 74.993662C13.1138348 72.0648312 15.4484527 69.5244956 18.4379115 69.5244956 20.40319 69.5244956 21.6320554 70.4246859 22.6154499 71.4503436L21.8986747 72.1857636C20.9976074 71.2659217 19.9726716 70.4662564 18.4167633 70.4662564 16.0421148 70.4662564 14.1991942 72.4533264 14.1991942 74.954359L14.1991942 74.993662C14.1991942 77.5151019 16.1032937 79.5225792 18.4990905 79.5225792 19.9726716 79.5225792 21.1192099 78.7659961 22.0006395 77.7811531L22.6970218 78.3963965C21.6320554 79.6042086 20.3616487 80.4666075 18.4379115 80.4666075 15.4273044 80.4666075 13.1138348 77.965575 13.1138348 75.0352325M33.2120601 74.5023742C33.068514 72.3928602 31.8604602 70.4450933 29.4639959 70.4450933 27.3939101 70.4450933 25.7975264 72.1865194 25.6124275 74.5023742L33.2120601 74.5023742zM24.5464088 75.0163368L24.5464088 74.9732547C24.5464088 71.9408755 26.6784461 69.5244956 29.5040377 69.5244956 32.4338891 69.5244956 34.2977219 71.9008167 34.2977219 74.993662 34.2977219 75.1788397 34.2977219 75.2408175 34.2773232 75.4040762L25.6124275 75.4040762C25.7975264 78.0071455 27.6598481 79.523335 29.7102908 79.523335 31.3263177 79.523335 32.4338891 78.8068108 33.2928992 77.8847014L33.9894755 78.4999449C32.9242124 79.6472907 31.6761168 80.4666075 29.668738 80.4666075 26.9239855 80.4666075 24.5464088 78.2731967 24.5464088 75.0163368L24.5464088 75.0163368zM44.4229178 76.2760277L44.4229178 75.0766522C43.5362708 74.8504842 42.3611781 74.6037556 40.8550198 74.6037556 38.6258446 74.6037556 37.3875831 75.5937163 37.3875831 77.0596196L37.3875831 77.1007411C37.3875831 78.6283266 38.8313337 79.5162452 40.4425197 79.5162452 42.5879771 79.5162452 44.4229178 78.1957899 44.4229178 76.2760277M36.3152349 77.1616618L36.3152349 77.1213018C36.3152349 74.9319656 38.1920345 73.6937532 40.9174276 73.6937532 42.380966 73.6937532 43.3924285 73.8803227 44.4038911 74.1498967L44.4038911 73.6937532C44.4038911 71.5660992 43.1024607 70.4733349 40.9372154 70.4733349 39.656334 70.4733349 38.6052957 70.8251517 37.6356921 71.3208936L37.2635286 70.4314519C38.4195946 69.8961116 39.5551116 69.5244956 40.9996232 69.5244956 42.4220638 69.5244956 43.5568197 69.9159109 44.3209344 70.6804651 45.0226413 71.3825757 45.3940437 72.3527372 45.3940437 73.6533933L45.3940437 80.2183558 44.4038911 80.2183558 44.4038911 78.4630793C43.6816353 79.4743623 42.380966 80.4666075 40.3801119 80.4666075 38.4195946 80.4666075 36.3152349 79.3517595 36.3152349 77.1616618M48.9246915 69.7711883L49.9256299 69.7711883 49.9256299 71.7317864C50.6167361 70.4922316 51.7793587 69.5244956 53.6759526 69.5244956 56.3050139 69.5244956 57.8353742 71.3404282 57.8353742 73.8591304L57.8353742 80.2982673 56.8366919 80.2982673 56.8366919 74.0449114C56.8366919 71.8772133 55.6334602 70.4518775 53.5338209 70.4518775 51.4943432 70.4518775 49.9256299 72.0218787 49.9256299 74.2086118L49.9256299 80.2982673 48.9246915 80.2982673 48.9246915 69.7711883zM7.39754786 28.196229C7.39754786 29.9161187 6.00608326 31.3112741 4.28721524 31.3112741 2.56984906 31.3112741 1.17688261 29.9161187 1.17688261 28.196229 1.17688261 26.4763392 2.56984906 25.0826873 4.28721524 25.0826873 6.00608326 25.0826873 7.39754786 26.4763392 7.39754786 28.196229M56.8266176 28.196229C56.8266176 29.9161187 55.4336512 31.3112741 53.7170359 31.3112741 51.9989188 31.3112741 50.6059524 29.9161187 50.6059524 28.196229 50.6059524 26.4763392 51.9989188 25.0826873 53.7170359 25.0826873 55.4336512 25.0826873 56.8266176 26.4763392 56.8266176 28.196229M32.1120827 40.4854382C32.1120827 42.2051204 30.7192844 43.6001074 29.0021255 43.6001074 27.2842158 43.6001074 25.8914175 42.2051204 25.8914175 40.4854382 25.8914175 38.765756 27.2842158 37.3715206 29.0021255 37.3715206 30.7192844 37.3715206 32.1120827 38.765756 32.1120827 40.4854382M19.6707523 34.4255674C19.6707523 36.1447055 18.2787048 37.5398608 16.5600442 37.5398608 14.8421345 37.5398608 13.450087 36.1447055 13.450087 34.4255674 13.450087 32.704926 14.8421345 31.3112741 16.5600442 31.3112741 18.2787048 31.3112741 19.6707523 32.704926 19.6707523 34.4255674M44.3852871 34.4255674C44.3852871 36.1447055 42.9924888 37.5398608 41.2753299 37.5398608 39.5566694 37.5398608 38.1646219 36.1447055 38.1646219 34.4255674 38.1646219 32.704926 39.5566694 31.3112741 41.2753299 31.3112741 42.9924888 31.3112741 44.3852871 32.704926 44.3852871 34.4255674M6.38879133 37.6247887C6.38879133 38.7848932 5.44870219 39.7282832 4.28835061 39.7282832 3.1264852 39.7282832 2.18563914 38.7848932 2.18563914 37.6247887 2.18563914 36.4616532 3.1264852 35.5197786 4.28835061 35.5197786 5.44870219 35.5197786 6.38879133 36.4616532 6.38879133 37.6247887M55.8178611 37.6247887C55.8178611 38.7848932 54.8764277 39.7282832 53.716285 39.7282832 52.5553856 39.7282832 51.6147089 38.7848932 51.6147089 37.6247887 51.6147089 36.4616532 52.5553856 35.5197786 53.716285 35.5197786 54.8764277 35.5197786 55.8178611 36.4616532 55.8178611 37.6247887M31.1033262 50.079689C31.1033262 51.2420667 30.1614752 52.1854568 29.0025066 52.1854568 27.8427816 52.1854568 26.900174 51.2420667 26.900174 50.079689 26.900174 48.918069 27.8427816 47.9769522 29.0025066 47.9769522 30.1614752 47.9769522 31.1033262 48.918069 31.1033262 50.079689M18.6619957 43.8533757C18.6619957 45.0154142 17.7213191 45.95687 16.5611764 45.95687 15.400277 45.95687 14.4588435 45.0154142 14.4588435 43.8533757 14.4588435 42.6905792 15.400277 41.7483654 16.5611764 41.7483654 17.7213191 41.7483654 18.6619957 42.6905792 18.6619957 43.8533757M43.3765306 43.8533757C43.3765306 45.0154142 42.43451 45.95687 41.2760895 45.95687 40.1146424 45.95687 39.1733784 45.0154142 39.1733784 43.8533757 39.1733784 42.6905792 40.1146424 41.7483654 41.2760895 41.7483654 42.43451 41.7483654 43.3765306 42.6905792 43.3765306 43.8533757M5.3800348 45.0298362C5.3800348 45.6352764 4.89107058 46.1252102 4.28760207 46.1252102 3.68335989 46.1252102 3.19439567 45.6352764 3.19439567 45.0298362 3.19439567 44.4259463 3.68335989 43.9367878 4.28760207 43.9367878 4.89107058 43.9367878 5.3800348 44.4259463 5.3800348 45.0298362M54.8091046 45.0298362C54.8091046 45.6352764 54.3190197 46.1252102 53.7166721 46.1252102 53.1120018 46.1252102 52.6234654 45.6352764 52.6234654 45.0298362 52.6234654 44.4259463 53.1120018 43.9367878 53.7166721 43.9367878 54.3190197 43.9367878 54.8091046 44.4259463 54.8091046 45.0298362M30.0945697 57.4873976C30.0945697 58.0918485 29.6044848 58.5823837 29.0021372 58.5823837 28.3982412 58.5823837 27.9089305 58.0918485 27.9089305 57.4873976 27.9089305 56.8829466 28.3982412 56.3939613 29.0021372 56.3939613 29.6044848 56.3939613 30.0945697 56.8829466 30.0945697 57.4873976M17.6532392 51.2595857C17.6532392 51.8632618 17.1635013 52.3537969 16.5600328 52.3537969 15.957338 52.3537969 15.4676001 51.8632618 15.4676001 51.2595857 15.4676001 50.6543599 15.957338 50.1653746 16.5600328 50.1653746 17.1635013 50.1653746 17.6532392 50.6543599 17.6532392 51.2595857M42.3677741 51.2595857C42.3677741 51.8632618 41.8776892 52.3537969 41.2753416 52.3537969 40.6698971 52.3537969 40.1821349 51.8632618 40.1821349 51.2595857 40.1821349 50.6543599 40.6698971 50.1653746 41.2753416 50.1653746 41.8776892 50.1653746 42.3677741 50.6543599 42.3677741 51.2595857M33.1208393 4.20858001C33.1208393 6.53336974 31.2387071 8.41700915 28.9188173 8.41700915 26.596667 8.41700915 24.7145349 6.53336974 24.7145349 4.20858001 24.7145349 1.88439378 26.596667 0 28.9188173 0 31.2387071 0 33.1208393 1.88439378 33.1208393 4.20858001M33.1208393 16.6656781C33.1208393 18.9901604 31.2387071 20.8741827 28.9188173 20.8741827 26.596667 20.8741827 24.7145349 18.9901604 24.7145349 16.6656781 24.7145349 14.3419501 26.596667 12.4571735 28.9188173 12.4571735 31.2387071 12.4571735 33.1208393 14.3419501 33.1208393 16.6656781M33.1208393 28.9552658C33.1208393 31.2786561 31.2387071 33.1630161 28.9188173 33.1630161 26.596667 33.1630161 24.7145349 31.2786561 24.7145349 28.9552658 24.7145349 26.6303669 26.596667 24.7460069 28.9188173 24.7460069 31.2387071 24.7460069 33.1208393 26.6303669 33.1208393 28.9552658M57.8353742 16.6656781C57.8353742 18.9901604 55.9535793 20.8741827 53.6325986 20.8741827 51.3108646 20.8741827 49.4290698 18.9901604 49.4290698 16.6656781 49.4290698 14.3419501 51.3108646 12.4571735 53.6325986 12.4571735 55.9535793 12.4571735 57.8353742 14.3419501 57.8353742 16.6656781M8.40630438 16.6656781C8.40630438 18.9901604 6.52492569 20.8741827 4.20352892 20.8741827 1.88213215 20.8741827 0 18.9901604 0 16.6656781 0 14.3419501 1.88213215 12.4571735 4.20352892 12.4571735 6.52492569 12.4571735 8.40630438 14.3419501 8.40630438 16.6656781M20.8476349 10.4370914C20.8476349 12.7612359 18.9660875 14.6455959 16.6444827 14.6455959 14.3228778 14.6455959 12.4413305 12.7612359 12.4413305 10.4370914 12.4413305 8.11143808 14.3228778 6.22858677 16.6444827 6.22858677 18.9660875 6.22858677 20.8476349 8.11143808 20.8476349 10.4370914M20.8476349 22.7255475C20.8476349 25.0499004 18.9660875 26.9344293 16.6444827 26.9344293 14.3228778 26.9344293 12.4413305 25.0499004 12.4413305 22.7255475 12.4413305 20.401949 14.3228778 18.5174201 16.6444827 18.5174201 18.9660875 18.5174201 20.8476349 20.401949 20.8476349 22.7255475M45.5621698 10.4370914C45.5621698 12.7612359 43.6800376 14.6455959 41.3586408 14.6455959 39.0372441 14.6455959 37.1558654 12.7612359 37.1558654 10.4370914 37.1558654 8.11143808 39.0372441 6.22858677 41.3586408 6.22858677 43.6800376 6.22858677 45.5621698 8.11143808 45.5621698 10.4370914M45.5621698 22.7255475C45.5621698 25.0499004 43.6800376 26.9344293 41.3586408 26.9344293 39.0372441 26.9344293 37.1558654 25.0499004 37.1558654 22.7255475 37.1558654 20.401949 39.0372441 18.5174201 41.3586408 18.5174201 43.6800376 18.5174201 45.5621698 20.401949 45.5621698 22.7255475"/>
  </g>
</svg>
